# xmcd
#
# Track frame offsets:
# 150
# 14170
# 27133
# 39377
# 53758
# 68378
# 82617
# 97605
# 111442
# 126418
# 140433
# 154161
# 168796
# 183066
# 197493
# 208188
# 218363
# 232450
# 246773
# 259477
#
# Disc length: 3652 seconds
#
#
# Revision: 1
# Processed by: cddbd v1.5.2PL0 Copyright (c) Steve Scherf et al.
# Submitted via: FreeRIP 2.951 
#
DISCID=0a0e4214
DTITLE=Ella Fitzgerald - This Is Gold [CD 1)
DYEAR=2004
DGENRE=Jazz
TTITLE0=Dream A Little Dream Of Me
TTITLE1=A Guy Is A Guy
TTITLE2=You'll Have To Swing It Mr. Paganini
TTITLE3=Can Anyone Explain
TTITLE4=But Not For Me
TTITLE5=Gee! Bit I'm Glad To Know You Love Me
TTITLE6=Don't Cha Go 'way Mad
TTITLE7=Lonesome Gal
TTITLE8=Mixed Emotions
TTITLE9=Smooth Sailing
TTITLE10=Air Mail Special
TTITLE11=Rough Ridin
TTITLE12=Lazy Day
TTITLE13=Do You Really Love Me
TTITLE14=Missisippi
TTITLE15=My Bonny Lies Over The Ocean
TTITLE16=The Bean Bag Song
TTITLE17=Oops!
TTITLE18=My Favourite Song
TTITLE19=Ding Dong Boogie
EXTD=
EXTT0=
EXTT1=
EXTT2=
EXTT3=
EXTT4=
EXTT5=
EXTT6=
EXTT7=
EXTT8=
EXTT9=
EXTT10=
EXTT11=
EXTT12=
EXTT13=
EXTT14=
EXTT15=
EXTT16=
EXTT17=
EXTT18=
EXTT19=
PLAYORDER=
